<?xml version="1.0" standalone="no"?>
<!DOCTYPE svg PUBLIC "-//W3C//DTD SVG 20010904//EN"
 "http://www.w3.org/TR/2001/REC-SVG-20010904/DTD/svg10.dtd">
<svg version="1.0" xmlns="http://www.w3.org/2000/svg"
 width="1024.000000pt" height="1024.000000pt" viewBox="0 0 1024.000000 1024.000000"
 preserveAspectRatio="xMidYMid meet">

<g transform="translate(0.000000,1024.000000) scale(0.100000,-0.100000)"
fill="#000000" stroke="none">
<path d="M5102 5893 c-28 -43 -29 -49 -14 -54 9 -4 22 -4 27 -1 6 4 17 7 25 9
8 1 16 7 18 13 2 5 8 8 13 4 7 -4 -17 43 -36 74 -1 1 -16 -19 -33 -45z"/>
<path d="M5011 5748 c-8 -13 -23 -38 -34 -57 l-20 -33 29 15 c28 15 30 14 31
-5 1 -12 7 -26 13 -32 7 -6 11 -7 10 -1 -5 21 0 36 10 30 16 -10 11 17 -6 36
-9 10 -16 30 -16 44 0 30 0 30 -17 3z"/>
<path d="M5226 5761 c-4 -5 -3 -16 0 -25 4 -10 0 -18 -11 -22 -9 -4 -14 -12
-11 -19 3 -9 -2 -11 -16 -7 -17 4 -20 2 -15 -11 4 -10 1 -17 -5 -17 -6 0 -8
-3 -5 -6 4 -4 12 -2 19 3 7 6 26 13 42 17 26 6 28 5 17 -8 -8 -9 -9 -16 -3
-16 5 0 17 10 26 23 9 12 15 17 12 11 -3 -6 1 -11 8 -11 8 0 2 17 -17 49 -32
52 -33 52 -41 39z"/>
<path d="M5055 5640 c-3 -5 -1 -10 4 -10 6 0 11 5 11 10 0 6 -2 10 -4 10 -3 0
-8 -4 -11 -10z"/>
<path d="M5155 5634 c-24 -8 -41 -10 -43 -4 -5 13 -32 13 -32 0 0 -5 -10 -10
-22 -11 -18 -1 -16 -3 10 -10 33 -10 42 -24 20 -32 -10 -3 -10 -7 1 -20 7 -9
18 -14 25 -10 6 4 6 0 -2 -9 -10 -13 -10 -17 5 -22 10 -4 19 -2 21 3 2 6 8 8
14 5 5 -4 5 4 -2 16 -10 19 -10 22 1 18 8 -3 20 0 26 7 10 10 9 14 -3 19 -8 3
-13 2 -9 -3 6 -11 -22 -8 -32 4 -4 4 -2 5 5 1 6 -4 12 -2 12 3 0 6 10 11 23
11 18 0 19 2 7 10 -13 9 -13 11 0 20 11 7 17 5 21 -7 5 -15 6 -15 12 -1 8 23
-13 28 -58 12z m-38 -56 c-3 -8 -6 -5 -6 6 -1 11 2 17 5 13 3 -3 4 -12 1 -19z"/>
<path d="M3450 4315 l0 -1325 255 0 255 0 2 904 3 904 413 -626 c227 -345 455
-690 505 -767 110 -166 129 -180 247 -180 126 0 122 -4 334 321 102 156 186
286 186 288 0 2 -19 -1 -42 -6 -24 -5 -97 -8 -163 -5 -100 3 -134 9 -207 34
-52 18 -90 27 -96 21 -9 -9 -103 130 -359 527 -134 207 -594 929 -687 1077
-59 95 -72 109 -118 132 -51 26 -54 26 -290 26 l-238 0 0 -1325z"/>
<path d="M6295 5621 c-22 -10 -52 -31 -66 -47 -27 -30 -493 -758 -506 -790 -6
-16 -1 -17 58 -11 81 9 228 48 303 81 119 53 233 152 315 275 l35 53 9 -28 c4
-16 10 -87 14 -159 9 -212 -35 -430 -123 -595 l-34 -64 0 -673 0 -673 255 0
255 0 0 1309 c0 720 -3 1316 -6 1325 -5 14 -36 16 -238 16 -203 0 -236 -3
-271 -19z"/>
<path d="M5316 5549 c-9 -16 -21 -27 -26 -24 -4 3 -7 -3 -6 -13 0 -9 -5 -16
-11 -14 -7 1 -13 -2 -13 -6 0 -5 -12 -14 -27 -21 -20 -9 -23 -15 -14 -20 11
-7 11 -10 0 -14 -8 -3 -2 -6 14 -6 15 -1 27 -5 27 -11 0 -5 -3 -9 -7 -9 -20 3
-47 -3 -35 -8 10 -4 10 -8 0 -21 -12 -14 -10 -14 12 -2 14 7 30 20 36 28 7 9
19 13 32 9 12 -3 25 0 29 5 3 6 1 8 -4 5 -6 -4 -14 0 -17 9 -4 10 -2 13 6 8 6
-4 4 3 -5 17 -25 35 -22 39 31 39 27 0 52 3 55 6 9 10 -12 46 -23 39 -6 -3 -7
0 -4 8 3 8 0 18 -7 23 -8 5 -10 3 -4 -7 7 -11 6 -12 -6 -2 -13 10 -18 7 -33
-18z"/>
<path d="M4899 5563 c-1 -4 -2 -14 -3 -21 0 -7 -12 -21 -24 -31 -24 -17 -24
-18 34 -20 32 -1 61 -4 63 -7 3 -2 -4 -17 -15 -32 -30 -41 -39 -56 -27 -49 5
4 19 -3 31 -13 24 -23 40 -27 23 -6 -8 10 -7 21 5 46 17 32 16 33 -14 61 -17
16 -36 29 -41 29 -6 0 -11 9 -11 19 0 19 -19 40 -21 24z"/>
<path d="M4872 5333 c-24 -36 -37 -60 -27 -51 4 4 15 2 23 -5 13 -9 14 -9 8 1
-4 7 -2 12 8 12 8 0 16 -5 18 -12 3 -9 6 -9 11 -1 4 6 1 17 -6 25 -8 7 -13 23
-12 36 2 28 0 28 -23 -5z"/>
<path d="M5369 5343 c-1 -4 -1 -12 0 -17 1 -5 -6 -18 -16 -29 -17 -20 -17 -20
0 -14 10 4 16 3 13 -1 -3 -5 10 -8 28 -8 32 1 33 2 18 23 -14 23 -29 33 -16
11 5 -7 3 -8 -5 -4 -7 5 -10 14 -7 22 3 7 1 16 -4 19 -6 4 -11 3 -11 -2z"/>
<path d="M5338 5258 c17 -17 15 -39 -3 -32 -14 6 -25 -21 -23 -58 1 -15 4 -15
17 -6 9 7 18 14 20 15 2 1 -2 10 -10 20 -12 15 -12 16 3 11 10 -4 19 -1 22 8
6 16 -13 54 -28 54 -6 0 -5 -5 2 -12z"/>
<path d="M5295 5220 c-3 -5 -1 -10 4 -10 6 0 11 5 11 10 0 6 -2 10 -4 10 -3 0
-8 -4 -11 -10z"/>
<path d="M4776 5186 c-10 -17 -12 -27 -5 -31 14 -10 24 2 24 31 1 30 1 30 -19
0z"/>
<path d="M5463 5176 c2 -6 12 -12 23 -13 10 -2 13 0 6 3 -6 3 -10 9 -8 13 3 4
-2 8 -10 8 -8 0 -13 -5 -11 -11z"/>
<path d="M4829 5007 l-37 -52 31 -2 c16 0 34 -8 39 -17 5 -9 13 -14 19 -11 5
4 9 1 9 -4 0 -6 5 -11 10 -11 6 0 10 19 10 42 0 23 -3 38 -7 34 -5 -4 -8 -13
-8 -18 0 -6 -6 -13 -14 -16 -10 -3 -12 3 -7 24 3 16 3 41 -1 56 -8 27 -8 27
-44 -25z"/>
<path d="M5394 5025 c-3 -8 -3 -18 0 -23 3 -6 -1 -13 -10 -16 -10 -4 -13 -2
-8 6 4 7 3 8 -4 4 -7 -4 -12 -14 -12 -22 0 -8 4 -13 9 -10 4 3 22 1 39 -3 39
-12 48 6 20 40 -11 13 -16 18 -12 10 5 -10 3 -12 -5 -7 -7 5 -10 14 -7 22 3 8
3 14 0 14 -2 0 -7 -7 -10 -15z"/>
<path d="M6311 4899 c-49 -46 -61 -63 -51 -69 8 -5 18 -6 22 -4 4 3 8 1 8 -4
0 -5 11 -7 25 -4 15 2 25 0 25 -7 0 -7 -5 -9 -11 -5 -7 4 -3 -8 7 -25 l19 -32
7 43 c4 24 7 66 6 94 -1 27 2 56 6 62 13 21 3 13 -63 -49z m49 28 c0 -2 -12
-14 -27 -28 l-28 -24 24 28 c23 25 31 32 31 24z"/>
<path d="M4957 4882 c-12 -13 -14 -21 -6 -29 17 -17 -11 -51 -46 -56 -16 -2 9
-5 58 -5 l87 -2 1 -67 c1 -38 3 -60 6 -50 3 10 14 17 30 17 13 0 23 3 21 8 -3
4 -10 22 -17 40 -7 17 -17 32 -22 32 -5 0 -9 8 -9 18 0 23 -56 58 -63 40 -4
-9 -6 -9 -6 -1 -1 6 6 18 14 26 13 13 13 16 -1 21 -8 3 -12 10 -9 16 11 18
-21 11 -38 -8z"/>
<path d="M5487 4873 c3 -7 0 -13 -6 -13 -6 0 -11 -13 -11 -30 l0 -30 -69 0
c-64 0 -70 2 -87 27 -9 15 -17 33 -17 40 0 15 -13 17 -22 3 -3 -5 -13 -6 -22
-3 -12 5 -15 2 -11 -8 5 -12 -1 -14 -26 -10 -30 4 -30 5 -6 12 20 6 21 7 5 8
-23 1 -39 -9 -42 -26 -2 -8 4 -10 14 -6 10 4 14 2 10 -4 -4 -6 0 -19 9 -27 13
-13 44 -16 192 -16 161 0 174 1 156 16 -10 8 -12 12 -5 8 9 -4 6 6 -8 24 -12
18 -27 32 -32 32 -6 0 -8 4 -5 8 3 5 -1 9 -8 9 -8 0 -12 -6 -9 -14z"/>
<path d="M4710 4833 l-31 -43 98 2 c54 0 83 3 66 5 -30 4 -61 35 -55 56 1 4
-5 7 -14 7 -8 0 -13 4 -10 8 3 5 -1 9 -9 9 -8 0 -28 -20 -45 -44z"/>
<path d="M5126 4741 c-3 -5 5 -8 18 -7 13 0 22 4 19 9 -6 10 -31 9 -37 -2z"/>
<path d="M5987 4731 c-17 -6 -16 -9 10 -21 15 -7 32 -14 37 -14 5 -1 11 -11
13 -24 2 -14 -1 -21 -7 -17 -5 3 -10 1 -10 -4 0 -6 5 -11 10 -11 21 0 8 -37
-20 -59 -17 -12 -28 -26 -24 -32 7 -12 70 27 66 42 -1 6 2 8 7 5 5 -4 22 5 38
19 15 14 24 25 18 24 -20 -4 -45 14 -45 32 0 11 -7 19 -16 19 -8 0 -12 5 -9
10 4 6 1 9 -6 8 -7 -2 -13 4 -14 12 0 17 -22 22 -48 11z"/>
<path d="M5913 4713 c-13 -2 -23 -8 -23 -13 0 -5 -9 -7 -20 -5 -11 2 -18 0
-15 -6 4 -5 13 -9 21 -9 8 0 12 -4 9 -10 -9 -15 2 -12 22 5 10 8 27 21 38 29
21 16 14 18 -32 9z"/>
<path d="M5142 4699 c2 -6 8 -10 13 -10 5 0 11 4 13 10 2 6 -4 11 -13 11 -9 0
-15 -5 -13 -11z"/>
<path d="M5108 4673 c6 -2 12 -10 12 -18 0 -7 7 -18 15 -25 9 -7 13 -15 11
-17 -3 -3 -1 -15 4 -28 5 -13 5 -26 -1 -32 -15 -15 27 -9 45 6 11 9 16 29 15
65 0 28 -3 45 -6 39 -2 -7 -14 -13 -24 -13 -11 0 -18 4 -15 9 7 11 -18 21 -47
20 -12 0 -16 -3 -9 -6z"/>
<path d="M5630 4663 c-65 -11 -180 -46 -180 -55 0 -6 11 -7 24 -4 15 4 26 1
29 -7 4 -7 6 -6 6 5 1 10 13 19 34 23 17 4 36 10 42 13 5 3 28 7 51 8 22 1 50
6 60 12 17 10 16 11 -11 10 -16 0 -41 -3 -55 -5z"/>
<path d="M5647 4619 c7 -7 15 -10 18 -7 3 3 -2 9 -12 12 -14 6 -15 5 -6 -5z"/>
<path d="M5568 4613 c7 -3 16 -2 19 1 4 3 -2 6 -13 5 -11 0 -14 -3 -6 -6z"/>
<path d="M5412 4603 c-6 -2 -9 -10 -5 -16 4 -7 0 -8 -11 -4 -11 5 -15 3 -10
-5 5 -8 2 -9 -10 -5 -11 5 -15 3 -10 -4 4 -7 1 -10 -7 -7 -17 6 -71 -30 -64
-43 4 -5 0 -6 -7 -4 -8 3 -25 -7 -38 -21 -14 -15 -19 -24 -13 -20 9 5 11 2 7
-8 -3 -9 -10 -14 -15 -11 -11 8 -54 -59 -74 -114 -19 -54 -19 -65 -1 -58 8 3
19 -5 26 -18 7 -14 16 -22 21 -20 4 3 6 -11 5 -30 -4 -41 6 -52 25 -28 12 14
12 16 0 8 -9 -5 -12 -4 -7 3 4 6 12 9 19 6 13 -5 44 22 48 41 4 24 12 34 21
29 5 -3 4 -12 -4 -21 -12 -15 -11 -15 9 -2 19 11 20 15 7 22 -11 6 -12 12 -4
22 8 10 8 15 -1 21 -7 4 -9 3 -6 -3 7 -11 -16 -37 -25 -28 -2 3 -5 -1 -6 -7
-3 -38 -22 -79 -22 -49 0 7 -4 10 -9 6 -9 -5 -27 32 -23 48 1 4 -6 7 -15 7
-17 1 -17 1 0 11 10 6 25 8 33 5 22 -8 17 3 -15 33 -46 43 -50 87 -5 58 7 -4
11 3 10 21 -1 24 3 27 29 27 17 0 29 -5 28 -11 -1 -6 11 -25 28 -43 16 -18 29
-27 29 -20 0 7 3 9 7 6 3 -4 12 -2 20 4 9 9 13 8 13 0 0 -6 -4 -11 -9 -11 -5
0 -11 -9 -14 -19 -3 -14 -1 -18 9 -14 10 3 12 0 8 -10 -3 -8 0 -18 7 -23 7 -4
10 -3 6 3 -4 6 0 14 9 17 8 3 13 2 9 -3 -3 -5 18 0 45 12 46 19 49 23 34 34
-10 7 -13 13 -8 13 15 0 13 24 -2 38 -9 8 -15 9 -20 1 -3 -6 0 -15 7 -20 11
-7 10 -9 -3 -9 -10 0 -18 5 -18 10 0 6 -7 10 -16 10 -8 0 -12 4 -9 10 3 6 -1
7 -10 4 -10 -4 -24 2 -37 15 l-20 23 28 30 c21 23 24 29 11 25 -10 -4 -21 -7
-23 -7 -3 0 -3 -4 1 -9 3 -5 1 -12 -4 -15 -5 -3 -11 3 -14 14 -3 13 2 26 16
36 20 15 21 16 2 10 -20 -6 -20 -6 0 9 11 9 25 13 33 10 7 -2 11 -1 8 4 -3 5
1 11 9 15 8 3 15 10 15 16 0 11 -7 12 -28 3z"/>
<path d="M5052 4499 c-1 -58 1 -109 5 -112 8 -9 55 72 57 98 0 11 6 20 13 20
6 0 14 3 18 7 9 9 -17 5 -33 -6 -21 -13 -50 22 -55 63 -2 20 -4 -12 -5 -70z"/>
<path d="M6082 4547 c-51 -51 -52 -54 -34 -70 10 -9 32 -17 49 -17 35 0 86
-23 75 -34 -4 -4 -1 -6 7 -4 7 2 16 -3 18 -9 3 -7 -2 -13 -9 -13 -9 0 -14 -12
-13 -38 0 -23 5 -39 12 -39 7 0 10 4 7 9 -3 4 -1 8 5 8 15 0 43 58 35 72 -4 6
-3 8 3 5 12 -8 36 40 27 55 -3 5 -15 -4 -25 -21 -22 -36 -30 -38 -54 -11 -10
11 -22 17 -28 13 -7 -4 -8 0 -4 12 6 14 3 16 -13 12 -24 -6 -27 14 -6 36 18
18 28 87 12 87 -6 0 -35 -24 -64 -53z"/>
<path d="M5495 4550 c-11 -4 -24 -5 -29 -2 -5 3 -6 0 -2 -6 4 -7 14 -12 21
-12 8 0 17 -10 20 -23 5 -18 13 -24 36 -24 16 0 29 4 29 9 0 5 11 6 23 4 39
-7 53 8 35 36 -15 23 -48 34 -48 17 0 -5 -7 -6 -15 -3 -9 4 -15 0 -15 -7 0
-11 -3 -11 -10 1 -5 8 -10 11 -10 5 0 -6 -3 -5 -8 1 -4 7 -15 8 -27 4z"/>
<path d="M5415 4530 c3 -5 8 -10 11 -10 2 0 4 5 4 10 0 6 -5 10 -11 10 -5 0
-7 -4 -4 -10z"/>
<path d="M5640 4530 c0 -6 7 -10 15 -10 8 0 15 2 15 4 0 2 -7 6 -15 10 -8 3
-15 1 -15 -4z"/>
<path d="M5766 4459 c3 -5 0 -9 -7 -9 -7 0 -10 -2 -7 -5 3 -3 16 -2 28 3 l24
9 -22 5 c-12 4 -20 2 -16 -3z"/>
<path d="M5710 4441 c0 -4 -12 -6 -27 -4 -27 3 -72 -21 -61 -32 2 -3 31 3 64
13 42 13 54 20 42 25 -10 3 -18 3 -18 -2z"/>
<path d="M5595 4400 c-3 -5 -1 -10 4 -10 6 0 11 5 11 10 0 6 -2 10 -4 10 -3 0
-8 -4 -11 -10z"/>
<path d="M5828 4383 c-21 -8 -38 -19 -38 -24 0 -4 -6 -6 -12 -4 -7 3 -31 -4
-53 -14 -32 -15 -35 -20 -17 -20 12 -1 22 -7 22 -16 0 -8 5 -15 11 -15 6 0 9
7 5 15 -4 10 8 21 36 35 23 11 45 17 49 13 12 -13 15 -37 4 -38 -5 0 -20 -10
-32 -22 -13 -13 -31 -23 -40 -24 -13 0 -10 -4 8 -12 15 -7 27 -16 27 -20 3
-20 31 -32 73 -32 34 0 45 -3 42 -12 -3 -7 0 -13 7 -13 9 0 10 -3 1 -14 -13
-15 -4 -46 17 -62 12 -8 11 -12 -2 -23 -16 -14 -12 -36 5 -25 5 3 6 10 3 16
-5 7 -2 9 8 5 21 -8 133 92 119 106 -7 7 -15 6 -25 -2 -13 -11 -16 -9 -22 13
-6 24 -15 31 -38 27 -5 -1 -6 5 -3 14 5 10 0 15 -14 15 -18 0 -20 -4 -15 -25
7 -29 -5 -33 -25 -8 -12 14 -12 16 0 8 11 -6 13 -4 8 8 -3 10 -2 17 3 17 6 0
10 9 10 20 0 11 -5 20 -12 20 -6 0 -9 3 -5 6 3 4 -1 13 -9 21 -8 8 -12 19 -8
24 3 5 -7 14 -21 19 -14 5 -24 14 -20 19 10 18 -10 19 -47 4z m161 -194 c-13
-13 -26 -18 -37 -13 -15 6 -15 8 3 12 11 2 24 8 30 13 20 19 24 8 4 -12z m81
-12 c0 -2 -10 -12 -22 -23 l-23 -19 19 23 c18 21 26 27 26 19z"/>
<path d="M5515 4381 c-3 -5 -2 -12 3 -15 5 -3 9 1 9 9 0 17 -3 19 -12 6z"/>
<path d="M5775 4320 c3 -5 8 -10 11 -10 2 0 4 5 4 10 0 6 -5 10 -11 10 -5 0
-7 -4 -4 -10z"/>
<path d="M5660 4310 c0 -6 7 -10 15 -10 8 0 15 2 15 4 0 2 -7 6 -15 10 -8 3
-15 1 -15 -4z"/>
<path d="M5576 4268 c5 -8 2 -9 -9 -5 -10 3 -17 2 -17 -4 0 -6 -4 -7 -10 -4
-5 3 -10 1 -10 -5 0 -6 -4 -9 -8 -6 -5 3 -9 -1 -9 -8 0 -9 11 -7 41 7 51 24
50 23 31 31 -11 4 -14 2 -9 -6z"/>
<path d="M5573 4230 c-3 -11 -10 -17 -16 -13 -6 3 -7 1 -3 -5 4 -7 9 -12 11
-12 8 0 35 32 35 41 0 17 -22 9 -27 -11z"/>
<path d="M5615 4230 c3 -5 10 -10 16 -10 5 0 9 5 9 10 0 6 -7 10 -16 10 -8 0
-12 -4 -9 -10z"/>
<path d="M5602 4189 c2 -7 10 -15 17 -17 8 -3 12 1 9 9 -2 7 -10 15 -17 17 -8
3 -12 -1 -9 -9z"/>
<path d="M5158 4142 c-14 -15 -25 -35 -25 -45 0 -22 14 -9 19 18 2 11 9 20 15
20 17 0 37 22 25 29 -5 3 -20 -7 -34 -22z"/>
<path d="M5342 4132 c-43 -38 -58 -77 -24 -65 9 3 14 3 10 -2 -4 -4 3 -16 15
-27 12 -11 16 -17 10 -13 -22 11 -14 -19 8 -33 12 -8 18 -9 15 -3 -4 5 2 9 12
8 23 -1 24 -33 2 -48 -13 -9 -12 -10 2 -5 24 7 32 -11 11 -23 -22 -13 168 -14
207 -1 24 8 24 8 3 9 -21 1 -29 16 -24 44 1 4 -10 5 -23 3 -16 -3 -27 1 -31
12 -3 9 -1 18 4 20 22 7 10 21 -14 16 -20 -3 -23 -1 -18 13 3 10 3 15 -2 11
-11 -11 -36 12 -28 25 4 6 -2 8 -15 5 -13 -4 -20 -2 -16 3 9 15 -15 39 -32 32
-10 -4 -14 2 -14 20 0 39 -11 39 -58 -1z"/>
<path d="M5385 3970 c-3 -5 -1 -10 4 -10 6 0 11 5 11 10 0 6 -2 10 -4 10 -3 0
-8 -4 -11 -10z"/>
<path d="M5760 3295 l0 -305 174 0 c167 0 174 1 179 21 3 11 5 147 4 302 l-2
282 -177 3 -178 2 0 -305z m279 35 c44 -23 31 -80 -19 -80 -59 0 -61 74 -2 89
2 1 11 -3 21 -9z"/>
</g>
</svg>
